<svg xmlns="http://www.w3.org/2000/svg" viewBox="0 0 150.38 18.52" width="150.38" height="18.52"><defs><style>.cls-1{fill:#838bc5;}.cls-2{fill:#000;}</style></defs><title>taolimited</title><g id="Layer_2" data-name="Layer 2"><g id="Layer_3" data-name="Layer 3"><path class="cls-1" d="M53.59,18.52V.53h4.86V14.59h6.93v3.93Z"/><path class="cls-1" d="M67.63,18.52V.53h4.88v18Z"/><path class="cls-1" d="M83.61,18.52l-3.68-13h-.11c.17,2.21.26,3.92.26,5.15v7.81H75.77V.53h6.47L86,13.3h.1L89.77.53h6.49v18H91.79V10.63c0-.41,0-.86,0-1.36s.07-1.73.16-3.68h-.11L88.23,18.52Z"/><path class="cls-1" d="M99.5,18.52V.53h4.89v18Z"/><path class="cls-1" d="M115.58,18.52h-4.86V4.5h-4.39v-4H120v4h-4.38Z"/><path class="cls-1" d="M132.58,18.52H121.9V.53h10.68v3.9h-5.82V7.26h5.39v3.9h-5.39v3.4h5.82Z"/><path class="cls-1" d="M150.38,9.14q0,4.52-2.48,6.94a9.52,9.52,0,0,1-7,2.44H135.1V.53h6.23A9.42,9.42,0,0,1,148,2.74,8.37,8.37,0,0,1,150.38,9.14Zm-5,.17a5.71,5.71,0,0,0-1-3.66,3.6,3.6,0,0,0-3-1.2H140V14.53h1.08a4,4,0,0,0,3.25-1.28A6.23,6.23,0,0,0,145.33,9.31Z"/></g><g id="Layer_9" data-name="Layer 9"><path class="cls-2" d="M9.25,18.27H4.39v-14H0v-4H13.63v4H9.25Z"/><path class="cls-2" d="M26.61,18.27l-.88-3.37H19.88L19,18.27H13.63L19.5.21H26l5.94,18.06Zm-1.89-7.36L23.94,8q-.27-1-.66-2.55c-.25-1-.42-1.78-.51-2.24-.07.42-.22,1.11-.43,2.07s-.7,2.85-1.45,5.67Z"/><path class="cls-2" d="M50.08,9.25c0,3-.75,5.33-2.23,6.91s-3.66,2.36-6.52,2.36a8.49,8.49,0,0,1-6.49-2.38q-2.27-2.37-2.26-6.91c0-3,.75-5.28,2.24-6.86S38.5,0,41.35,0s5,.78,6.51,2.35S50.08,6.22,50.08,9.25Zm-12.38,0q0,5.22,3.63,5.22a3.09,3.09,0,0,0,2.73-1.27A6.88,6.88,0,0,0,45,9.25a7,7,0,0,0-.91-4A3.09,3.09,0,0,0,41.35,4Q37.71,4,37.7,9.25Z"/></g></g></svg>